<?xml version="1.0" encoding="utf-8"?>
<!-- Generator: Adobe Illustrator 22.0.1, SVG Export Plug-In . SVG Version: 6.00 Build 0)  -->
<svg version="1.1" id="Layer_1" xmlns="http://www.w3.org/2000/svg" xmlns:xlink="http://www.w3.org/1999/xlink" x="0px" y="0px"
	 viewBox="0 0 49 84.3" style="enable-background:new 0 0 49 84.3;" xml:space="preserve">
<style type="text/css">
	.st0{fill:none;stroke:#562D0D;stroke-width:2;stroke-linecap:round;stroke-miterlimit:10;}
	.st1{fill:#562D0D;}
	.st2{font-family:'Roboto-Regular';}
	.st3{font-size:12px;}
	.st4{fill:none;stroke:#562D0D;stroke-width:1.5;stroke-linecap:round;stroke-linejoin:round;stroke-miterlimit:10;}
</style>
<path class="st0" d="M16.4,9.8C10.8,12.7,7,18.6,7,25.3v13.5c0,9.6,7.9,17.5,17.5,17.5S42,48.4,42,38.8V25.3
	c0-6.7-3.8-12.6-9.4-15.5"/>
<path class="st0" d="M24.5,17.2L24.5,17.2c-1.9,0-3.4-1.5-3.4-3.4V7.1c0-1.9,1.5-3.4,3.4-3.4h0c1.9,0,3.4,1.5,3.4,3.4v6.7
	C27.9,15.7,26.4,17.2,24.5,17.2z"/>
<text transform="matrix(1 0 0 1 2.7651 68.6761)" class="st1 st2 st3">scroll</text>
<polyline class="st4" points="31.5,75.7 24.5,82.7 17.6,75.7 "/>
</svg>
