<?xml version="1.0" encoding="utf-8"?><svg version="1.1" id="Layer_1" xmlns="http://www.w3.org/2000/svg" xmlns:xlink="http://www.w3.org/1999/xlink" x="0px" y="0px"   viewBox="0 0 32 32" style="enable-background:new 0 0 32 32;" xml:space="preserve"><style type="text/css">  .st0{fill:#FFFFFF;}</style><g>  <circle cx="16" cy="16" r="16"/></g><polygon class="st0" points="14,10.6 10.4,10.6 10.4,7 9.6,7 9.6,10.6 6,10.6 6,11.4 9.6,11.4 9.6,15 10.4,15 10.4,11.4 14,11.4 "/><polygon class="st0" points="25.1,13.5 22.6,11 25.1,8.5 24.5,7.9 22,10.4 19.5,7.9 18.9,8.5 21.4,11 18.9,13.5 19.5,14.1 22,11.6  24.5,14.1 "/><path class="st0" d="M27.5,18c0,6.4-5.1,11.5-11.5,11.5S4.5,24.4,4.5,18H27.5z"/></svg>